# xmcd
#
# Track frame offsets: 
#        150
#        12466
#        27965
#        40219
#        49730
#        67841
#        86111
#        105002
#        134360
#        157159
#        186506
#        201918
#        227143
#        242332
#        253966
#        270074
#        288297
#        315295
#
# Disc length: 4531 seconds
#
# Revision: 3
# Processed by: cddbd v1.5.2PL0 Copyright (c) Steve Scherf et al.
# Submitted via: ExactAudioCopyFreeDBPlugin 1.0
#
DISCID=ef11b112
DTITLE=Wilson Pickett - Funky Midnight Mover:  The Atlantic Studio Rec
DTITLE=ordings, 1962 - 1978 [box set]
DYEAR=2009
DGENRE=Soul
TTITLE0=Hello Sunshine (alternate version without overdub)
TTITLE1=Pray for the Rain (Take 1 - scratch vocals)
TTITLE2=Groovy Little Woman (alternate version without overdub - Take 
TTITLE2=12)
TTITLE3=Let it Come Naturally
TTITLE4=Believe I'll Shout (gospel jam)
TTITLE5=Get Me Back on Time, Engine Number 9 (Takes 1 and 2)
TTITLE6=Rock of Ages
TTITLE7=Many Roads to Travel
TTITLE8=I Hope She'll Be Happier with Him
TTITLE9=Heaven
TTITLE10=Can't Stop a Man in Love (alternate version)
TTITLE11=If You Need Me (second version)
TTITLE12=Don't Forget the Bridge
TTITLE13=International Playboy (second single version)
TTITLE14=Talk Jive
TTITLE15=I'll Be There
TTITLE16=Groove City
TTITLE17=Superstar
EXTD=
EXTT0=
EXTT1=
EXTT2=
EXTT3=
EXTT4=
EXTT5=
EXTT6=
EXTT7=
EXTT8=
EXTT9=
EXTT10=
EXTT11=
EXTT12=
EXTT13=
EXTT14=
EXTT15=
EXTT16=
EXTT17=
PLAYORDER=
